<svg version="1.1" id="Layer_1" xmlns="http://www.w3.org/2000/svg" xmlns:xlink="http://www.w3.org/1999/xlink" x="0px" y="0px"
	 width="100%" viewBox="0 0 496 288" enable-background="new 0 0 496 288" xml:space="preserve">
<path fill="#000000" opacity="1.000000" stroke="none" 
	d="
M257.840088,103.996613 
	C256.833282,101.119507 255.952667,98.607384 255.044037,96.105453 
	C254.413010,94.367897 253.811966,92.385620 251.535263,92.439407 
	C249.227356,92.493942 248.726166,94.544739 248.280212,96.310242 
	C245.914902,105.674591 243.630035,115.059250 241.272751,124.425659 
	C240.894257,125.929504 241.118225,127.822151 239.072769,128.574142 
	C237.210281,127.492523 237.296173,125.464737 236.811905,123.818352 
	C232.352646,108.657860 228.007156,93.463867 223.530457,78.308594 
	C222.954666,76.359306 222.801010,73.530556 219.974442,73.514656 
	C216.698868,73.496239 216.877518,76.658096 216.439651,78.723602 
	C214.541992,87.675140 212.779449,96.659569 211.210495,105.674286 
	C210.650604,108.891350 209.261322,110.261269 205.954773,110.234825 
	C193.128265,110.132256 180.300278,110.145897 167.473389,110.215973 
	C164.846268,110.230324 163.192459,108.999496 161.583160,107.117882 
	C149.127518,92.554604 148.469437,66.405045 157.490494,51.044235 
	C167.929916,33.268299 188.095856,23.341446 207.709656,26.287439 
	C219.017731,27.985912 228.650803,32.687752 236.631866,40.751221 
	C240.478973,44.638046 244.023010,48.824829 248.815369,54.098392 
	C253.371689,49.030865 256.796082,44.744186 260.703186,40.955257 
	C283.975433,18.386885 319.573090,21.416052 337.748932,47.399982 
	C350.146545,65.123474 349.383209,90.146362 336.048737,107.153564 
	C334.318054,109.360954 332.372772,110.217598 329.655518,110.202461 
	C317.994751,110.137444 306.332397,110.113075 294.672699,110.249641 
	C291.452911,110.287354 289.896606,109.106560 289.097168,105.958298 
	C286.724823,96.615646 284.139954,87.325356 281.508972,78.051247 
	C280.953674,76.093887 280.744354,73.388710 277.825287,73.406166 
	C275.075928,73.422600 274.510437,75.910881 273.844482,77.912102 
	C270.532562,87.864494 267.344849,97.858208 264.033264,107.810715 
	C263.534973,109.308182 263.579956,111.182838 261.471924,112.259964 
	C259.216156,110.136383 259.244659,106.920525 257.840088,103.996613 
z"/>
<path fill="#000000" opacity="1.000000" stroke="none" 
	d="
M296.070435,115.798309 
	C306.136414,115.798668 315.714752,115.798668 325.125580,115.798668 
	C325.848785,118.765167 324.104645,119.618317 323.022858,120.712135 
	C299.834442,144.158600 276.552765,167.513382 253.465698,191.059021 
	C249.993698,194.600006 247.883011,194.804382 244.263550,191.118546 
	C221.391556,167.827148 198.271362,144.779572 175.271118,121.613762 
	C173.933929,120.266975 171.962524,119.256851 171.929047,116.872238 
	C173.369675,115.157951 175.333313,115.828270 177.050446,115.816956 
	C187.876358,115.745689 198.703995,115.681206 209.528671,115.812424 
	C213.383499,115.859146 215.128571,114.419083 215.883179,110.524124 
	C217.097397,104.256805 217.616913,97.774254 220.106201,91.595909 
	C222.516495,92.995468 222.538406,95.175056 223.073273,97.001671 
	C227.330093,111.538643 231.491699,126.103470 235.738235,140.643494 
	C236.365387,142.790787 236.558975,145.687347 239.749878,145.505142 
	C242.625137,145.340973 242.577591,142.606842 243.077682,140.595840 
	C245.323151,131.566238 247.482849,122.515343 249.701645,113.479042 
	C250.155914,111.628944 250.731094,109.808525 251.429459,107.342621 
	C254.949524,111.091820 255.127319,115.453995 256.799561,119.123421 
	C257.487762,120.633583 257.910095,122.262642 258.531647,123.806091 
	C259.108887,125.239510 259.916962,126.545227 261.679901,126.626793 
	C263.787018,126.724289 264.470673,125.199036 265.015472,123.532303 
	C268.219910,113.728798 271.409271,103.920135 274.677917,94.138016 
	C275.287384,92.314156 275.395966,90.177528 277.581482,88.662086 
	C280.416626,94.266624 281.228424,100.356110 282.923462,106.126083 
	C286.250397,117.450836 285.251740,115.574188 296.070435,115.798309 
z"/>
<path fill="#000000" opacity="1.000000" stroke="none" 
	d="
M128.848190,261.583099 
	C119.749512,256.724518 116.429611,247.649246 119.730888,237.499603 
	C122.907127,227.734406 132.474686,221.522980 142.097672,222.987335 
	C142.590012,223.062256 143.067627,223.229111 143.557312,223.327057 
	C152.152283,225.045990 153.182053,227.132324 149.461319,235.306519 
	C147.835632,235.680740 147.113495,234.825821 146.482147,233.428375 
	C143.246170,226.265549 134.534424,225.009125 129.460663,230.918930 
	C124.180962,237.068634 124.991867,250.818939 130.957520,256.300659 
	C136.490829,261.385132 143.817871,259.459137 145.909576,252.361374 
	C146.289871,251.070908 146.533569,249.642258 148.279846,249.612518 
	C150.162216,249.580505 150.831024,250.863358 151.128159,252.479263 
	C151.785721,256.055237 151.229950,258.935791 147.573044,260.856812 
	C141.523438,264.034760 135.452515,263.932495 128.848190,261.583099 
z"/>
<path fill="#000000" opacity="1.000000" stroke="none" 
	d="
M257.716064,222.904449 
	C259.609985,223.257080 261.098236,223.476028 262.536224,223.875717 
	C267.049408,225.130066 268.990295,230.031158 266.648376,234.094666 
	C266.216675,234.843704 265.770325,235.544434 264.779968,235.419296 
	C263.662994,235.278152 262.931549,234.579498 262.803802,233.490540 
	C262.238495,228.672974 259.175873,227.286484 254.789062,227.186066 
	C249.710266,227.069809 245.884369,229.163681 243.963058,233.677444 
	C241.090576,240.425812 241.168716,247.273102 245.060898,253.762955 
	C247.565994,257.939941 251.289261,259.411041 256.086670,258.888641 
	C260.396271,258.419342 261.992279,255.710632 262.578552,251.922150 
	C262.767212,250.703003 263.087860,249.577682 264.647339,249.644943 
	C266.249512,249.714081 266.944641,250.703354 267.183594,252.200928 
	C267.847351,256.360748 267.086151,259.492035 262.659302,261.466827 
	C252.321548,266.078430 239.864960,261.895020 236.073013,252.182877 
	C231.687943,240.951584 238.202972,227.040283 249.422180,223.894897 
	C251.961121,223.183090 254.570190,222.467194 257.716064,222.904449 
z"/>
<path fill="#000000" opacity="1.000000" stroke="none" 
	d="
M176.309067,245.178345 
	C176.310135,247.981598 176.403336,250.319351 176.288589,252.646851 
	C176.131287,255.837051 176.134094,258.797882 180.697952,258.291534 
	C178.731796,264.215332 174.860168,264.649384 169.757996,259.746216 
	C168.568375,260.481201 167.365295,261.331909 166.069962,262.005066 
	C161.803864,264.222015 158.005585,263.495941 155.920364,260.137939 
	C153.826324,256.765747 155.024948,252.281540 158.718719,249.650650 
	C161.091385,247.960724 163.900833,247.421127 166.626556,246.691742 
	C168.725128,246.130157 170.516693,245.330444 170.167099,242.724838 
	C169.921600,240.895142 169.526917,239.012146 167.308472,238.484344 
	C164.989594,237.932632 163.345383,238.909256 162.543625,241.046890 
	C161.974533,242.564255 161.355499,243.895660 159.527649,243.826935 
	C158.285690,243.780228 157.341080,243.038483 156.953171,241.796738 
	C156.389557,239.992508 156.998810,238.491409 158.370987,237.322906 
	C162.328033,233.953110 167.013550,233.720184 171.580338,235.187302 
	C176.004684,236.608627 176.346054,240.718857 176.309067,245.178345 
M169.344086,254.927933 
	C170.246964,253.506348 171.076721,252.075287 170.010635,250.441208 
	C169.001221,249.656998 168.006592,250.158279 167.077026,250.321259 
	C164.450592,250.781693 161.753754,251.237411 160.807892,254.326355 
	C160.402664,255.649673 161.082474,256.678070 162.159271,257.222870 
	C164.850952,258.584686 166.894653,257.061707 169.344086,254.927933 
z"/>
<path fill="#000000" opacity="1.000000" stroke="none" 
	d="
M285.851501,263.286621 
	C279.846649,263.232819 275.184509,261.460632 273.072601,255.846802 
	C270.739349,249.644592 271.199463,243.708221 275.932709,238.656418 
	C280.337830,233.954834 285.914795,233.614349 291.622559,235.287918 
	C296.452240,236.703995 299.229645,241.291672 299.344421,246.905563 
	C299.497437,254.389847 296.597107,259.813385 291.084869,262.043610 
	C289.564972,262.658539 287.884186,262.875854 285.851501,263.286621 
M292.625397,245.265030 
	C291.495605,241.056625 289.428711,237.725876 284.433929,238.360550 
	C279.609467,238.973572 278.829407,242.968246 278.381012,246.840622 
	C278.056152,249.645920 278.188232,252.488205 279.557922,255.096542 
	C281.060242,257.957428 283.268890,259.957611 286.658752,259.503418 
	C289.983582,259.057953 291.970917,256.701904 292.513580,253.531128 
	C292.927399,251.113403 292.676605,248.581940 292.625397,245.265030 
z"/>
<path fill="#000000" opacity="1.000000" stroke="none" 
	d="
M334.234161,240.530243 
	C337.597900,235.596512 341.987518,233.870743 347.439392,234.665985 
	C352.560760,235.412994 356.399445,240.200104 356.166718,245.288834 
	C356.048340,247.877335 354.410492,248.202469 352.439667,248.211609 
	C348.143463,248.231552 343.847076,248.217773 339.609070,248.217773 
	C339.006531,257.262390 342.282776,258.754272 354.781891,255.794373 
	C356.068512,257.235687 354.948822,258.212067 354.061523,259.161865 
	C350.155731,263.342712 344.114685,264.460358 338.896118,262.005646 
	C334.441772,259.910461 331.252380,253.348694 332.047394,247.512207 
	C332.359161,245.223480 332.758972,242.889587 334.234161,240.530243 
M346.025177,244.454453 
	C349.316406,244.556244 349.768402,242.939255 348.330383,240.426224 
	C347.041656,238.174103 344.883423,237.838333 342.686035,238.670746 
	C340.729614,239.411880 338.864746,241.078430 339.609619,243.173782 
	C340.563904,245.858154 343.353851,244.239090 346.025177,244.454453 
z"/>
<path fill="#000000" opacity="1.000000" stroke="none" 
	d="
M206.676910,248.096573 
	C207.695297,238.514114 213.096680,233.809921 221.513306,234.646713 
	C224.756973,234.969193 227.190826,236.534851 228.799103,239.262375 
	C230.180878,241.605774 231.182404,244.323334 229.835526,246.852921 
	C228.613205,249.148575 225.944611,248.043472 223.890198,248.216080 
	C222.071442,248.368927 220.222778,248.159882 218.402618,248.303894 
	C216.700546,248.438522 214.390686,247.498062 213.618881,249.827423 
	C212.943253,251.866455 214.087631,253.786865 215.376175,255.316483 
	C218.013931,258.447784 221.420410,258.300903 224.984314,257.230560 
	C226.483582,256.780273 227.706619,255.105118 230.250565,256.469238 
	C228.093109,260.666412 224.582779,262.653137 220.227432,263.220978 
	C215.157959,263.881927 210.314468,261.170197 208.294144,256.775177 
	C207.101166,254.179977 206.462326,251.430511 206.676910,248.096573 
M215.878281,239.234116 
	C214.591736,240.505630 213.320038,241.783249 213.907608,243.904419 
	C215.894745,245.211533 218.061005,244.539566 220.126114,244.554520 
	C221.598068,244.565186 223.313522,244.525986 223.405411,242.473618 
	C223.475571,240.906235 222.631210,239.615936 221.222137,238.881409 
	C219.685928,238.080566 218.069870,238.128662 215.878281,239.234116 
z"/>
<path fill="#000000" opacity="1.000000" stroke="none" 
	d="
M320.471039,257.400116 
	C320.179443,258.236969 320.042725,258.720551 319.837372,259.173004 
	C319.015289,260.984375 318.359406,263.137512 315.858490,263.035828 
	C313.585144,262.943420 313.158356,260.817047 312.469666,259.184875 
	C310.531342,254.591095 308.648102,249.973053 306.818390,245.334900 
	C305.900818,243.009018 305.247772,240.563049 302.563965,239.533096 
	C301.565552,239.149918 300.808868,238.427795 301.182587,237.247894 
	C301.519897,236.182831 302.456055,235.713257 303.524292,235.737427 
	C306.934753,235.814590 310.416290,235.016327 314.319519,236.466049 
	C308.362701,243.436722 315.440552,247.958145 317.551025,253.769913 
	C318.980682,250.113464 320.386200,246.447296 321.851288,242.805084 
	C322.486237,241.226700 321.886169,240.277069 320.494812,239.595474 
	C319.535706,239.125641 318.759216,238.471222 319.175110,237.273376 
	C319.540100,236.222214 320.437775,235.750687 321.511139,235.740341 
	C324.446503,235.712051 327.382294,235.730606 330.680237,236.264038 
	C324.828064,242.220062 323.710205,250.095245 320.471039,257.400116 
z"/>
<path fill="#000000" opacity="1.000000" stroke="none" 
	d="
M361.802307,262.309387 
	C358.671783,261.262024 359.508423,259.847137 361.274963,258.937836 
	C363.523010,257.780670 363.636780,255.933502 363.568176,253.901321 
	C363.366089,247.913635 364.512604,241.622391 359.248383,236.641251 
	C363.469940,233.760590 366.885284,234.266052 370.082581,237.650330 
	C372.195374,235.509781 374.537048,234.083221 377.632599,234.645096 
	C380.117279,235.096115 381.666931,236.490982 381.186615,239.095154 
	C380.697296,241.748138 378.757782,241.706619 376.552032,241.131638 
	C371.811615,239.895859 369.757629,241.356430 369.389221,246.190582 
	C369.225739,248.336182 369.419983,250.507019 369.311279,252.659317 
	C369.177612,255.305206 369.374969,257.670746 372.466827,258.585297 
	C373.510651,258.894043 374.233673,259.606659 373.965149,260.788666 
	C373.700806,261.952301 372.686066,262.258514 371.661957,262.277924 
	C368.510712,262.337646 365.358185,262.329163 361.802307,262.309387 
z"/>
<path fill="#000000" opacity="1.000000" stroke="none" 
	d="
M188.480103,234.895340 
	C191.317032,236.236267 193.554901,237.585022 196.451981,235.271255 
	C198.087738,233.964874 200.614624,234.165054 202.592300,235.437378 
	C204.173126,236.454391 204.728012,238.048019 203.978149,239.778793 
	C203.288040,241.371628 201.882751,241.630981 200.213867,241.330872 
	C193.737686,240.166229 192.260956,241.278519 192.402771,247.945190 
	C192.490128,252.051971 190.364273,257.082428 196.516403,259.325653 
	C197.764481,259.780731 197.025909,261.935242 195.339584,262.106995 
	C191.147598,262.533936 186.925095,262.755432 182.457977,261.810760 
	C188.736877,253.049835 188.523529,244.834610 182.869614,236.410904 
	C184.076721,234.565582 186.182495,234.976791 188.480103,234.895340 
z"/>
</svg>